<svg width="32" height="32" viewBox="0 0 32 32" fill="none" xmlns="http://www.w3.org/2000/svg">
<path fill-rule="evenodd" clip-rule="evenodd" d="M2.5 4.88757C2.5 4.28931 2.73766 3.71556 3.16069 3.29253C3.58372 2.8695 4.15747 2.63184 4.75573 2.63184H27.2418C27.5383 2.63135 27.832 2.68935 28.106 2.80251C28.38 2.91567 28.629 3.08177 28.8388 3.2913C29.0486 3.50082 29.2149 3.74967 29.3284 4.02358C29.4418 4.29749 29.5002 4.59109 29.5 4.88757V27.3737C29.5003 27.6702 29.4422 27.9639 29.3289 28.2379C29.2156 28.512 29.0494 28.761 28.8397 28.9707C28.6301 29.1805 28.3812 29.3468 28.1072 29.4602C27.8332 29.5737 27.5396 29.632 27.243 29.6318H4.75573C4.4594 29.6318 4.16597 29.5735 3.89221 29.46C3.61846 29.3466 3.36973 29.1803 3.16025 28.9707C2.95077 28.7611 2.78464 28.5123 2.67135 28.2385C2.55807 27.9647 2.49984 27.6712 2.5 27.3749V4.88757ZM13.1871 12.9262H16.8431V14.7622C17.3709 13.7067 18.7209 12.7568 20.7495 12.7568C24.6388 12.7568 25.5605 14.8592 25.5605 18.7165V25.8617H21.6246V19.5952C21.6246 17.3984 21.0969 16.1588 19.7567 16.1588C17.8974 16.1588 17.1242 17.4953 17.1242 19.5952V25.8617H13.1871V12.9262ZM6.43709 25.6935H10.3742V12.7568H6.43709V25.6935ZM10.9375 8.53747C10.9449 8.87457 10.8849 9.20976 10.7611 9.52336C10.6372 9.83696 10.4519 10.1227 10.2161 10.3637C9.98036 10.6047 9.69881 10.7962 9.38801 10.927C9.07721 11.0577 8.74343 11.1251 8.40625 11.1251C8.06907 11.1251 7.73529 11.0577 7.42449 10.927C7.11369 10.7962 6.83214 10.6047 6.59635 10.3637C6.36057 10.1227 6.17531 9.83696 6.05143 9.52336C5.92756 9.20976 5.86758 8.87457 5.875 8.53747C5.88957 7.8758 6.16265 7.24613 6.63577 6.78332C7.10888 6.32051 7.74441 6.06135 8.40625 6.06135C9.06809 6.06135 9.70362 6.32051 10.1767 6.78332C10.6498 7.24613 10.9229 7.8758 10.9375 8.53747Z" fill="white"/>
</svg>
